<?xml version="1.0" standalone="no"?>
<!DOCTYPE svg PUBLIC "-//W3C//DTD SVG 20010904//EN"
 "http://www.w3.org/TR/2001/REC-SVG-20010904/DTD/svg10.dtd">
<svg version="1.0" xmlns="http://www.w3.org/2000/svg"
 width="1024.000000pt" height="1024.000000pt" viewBox="0 0 1024.000000 1024.000000"
 preserveAspectRatio="xMidYMid meet">
<metadata>
Created by potrace 1.14, written by Peter Selinger 2001-2017
</metadata>
<g transform="translate(0.000000,1024.000000) scale(0.100000,-0.100000)"
fill="#000000" stroke="none">
<path d="M1215 10225 c-469 -74 -856 -355 -1063 -770 -46 -93 -104 -250 -118
-320 -32 -168 -32 -128 -32 -4005 -1 -3841 0 -3912 31 -4015 4 -11 8 -31 11
-45 11 -65 72 -220 125 -320 133 -253 375 -485 631 -607 86 -40 249 -98 301
-107 20 -3 42 -8 50 -10 8 -3 34 -9 59 -13 25 -4 1771 -8 3880 -10 3999 -2
3876 -3 4060 36 54 11 195 58 230 76 14 7 48 23 75 36 181 84 423 296 539 473
127 192 192 357 231 591 20 118 20 7690 0 7810 -38 230 -115 424 -238 604 -28
42 -104 128 -167 192 -217 218 -440 335 -760 399 -92 18 -208 19 -3930 18
-3059 0 -3851 -3 -3915 -13z"/>
</g>
</svg>
